<svg width="41" height="42" viewBox="0 0 41 42" fill="none" xmlns="http://www.w3.org/2000/svg">
<path d="M37.1449 10.249C35.9201 10.7774 34.5873 11.1576 33.2144 11.3057C34.6398 10.4589 35.7072 9.12108 36.2163 7.54326C34.8788 8.33893 33.4135 8.89687 31.8855 9.19233C31.2469 8.50959 30.4745 7.96569 29.6165 7.59452C28.7584 7.22335 27.8332 7.03286 26.8983 7.03493C23.1158 7.03493 20.0739 10.1009 20.0739 13.8634C20.0739 14.3917 20.1379 14.92 20.242 15.4284C14.5783 15.1322 9.52702 12.4264 6.16884 8.28374C5.55694 9.32888 5.23629 10.5189 5.24023 11.73C5.24023 14.0995 6.44502 16.1889 8.28221 17.4177C7.19952 17.375 6.14219 17.0774 5.19621 16.5491V16.6332C5.19621 19.9513 7.54173 22.7011 10.6678 23.3335C10.0808 23.486 9.47701 23.564 8.87059 23.5657C8.4263 23.5657 8.00603 23.5216 7.58175 23.4616C8.44631 26.1673 10.9639 28.1326 13.9619 28.1967C11.6164 30.0339 8.67846 31.1146 5.48839 31.1146C4.91602 31.1146 4.38768 31.0945 3.83932 31.0305C6.86529 32.9718 10.4556 34.0925 14.3221 34.0925C26.8743 34.0925 33.7427 23.6937 33.7427 14.6679C33.7427 14.3717 33.7427 14.0755 33.7227 13.7793C35.0516 12.8067 36.2163 11.6019 37.1449 10.249Z" fill="white"/>
</svg>
