<svg width="46" height="47" viewBox="0 0 46 47" fill="none" xmlns="http://www.w3.org/2000/svg">
<path d="M23 26.9036C27.2281 26.9036 30.6666 23.4651 30.6666 19.237C30.6666 15.0088 27.2281 11.5703 23 11.5703C18.7718 11.5703 15.3333 15.0088 15.3333 19.237C15.3333 23.4651 18.7718 26.9036 23 26.9036ZM23 15.4036C25.1141 15.4036 26.8333 17.1229 26.8333 19.237C26.8333 21.3511 25.1141 23.0703 23 23.0703C20.8859 23.0703 19.1666 21.3511 19.1666 19.237C19.1666 17.1229 20.8859 15.4036 23 15.4036Z" fill="black"/>
<path d="M21.8884 41.8805C22.2128 42.1122 22.6014 42.2367 23.0001 42.2367C23.3987 42.2367 23.7873 42.1122 24.1117 41.8805C24.6944 41.4684 38.389 31.5804 38.3334 19.237C38.3334 10.7826 31.4545 3.90369 23.0001 3.90369C14.5457 3.90369 7.66673 10.7826 7.66673 19.2274C7.61115 31.5804 21.3057 41.4684 21.8884 41.8805ZM23.0001 7.73702C29.3423 7.73702 34.5001 12.8948 34.5001 19.2466C34.5403 27.7528 26.0897 35.3907 23.0001 37.8958C19.9123 35.3888 11.4598 27.7489 11.5001 19.237C11.5001 12.8948 16.6578 7.73702 23.0001 7.73702Z" fill="white"/>
</svg>
