<svg width="73" height="61" viewBox="0 0 73 61" fill="none" xmlns="http://www.w3.org/2000/svg">
<g clip-path="url(#clip0_0_365)">
<path d="M36.6578 0.796875C17.3226 0.796875 2.17442 25.3969 0.74118 46.1743C6.80879 56.7048 21.4406 60.6631 36.6584 60.6631C51.875 60.6631 66.5077 56.7048 72.5722 46.1741C71.1386 25.3969 55.9924 0.796875 36.6581 0.796875" fill="#B6DEFF"/>
<path d="M67.5196 41.225C67.5196 41.225 63.2492 31.9924 58.9086 26.6059C54.5649 21.2172 49.2604 15.3495 46.1241 15.3495C42.9894 15.3495 34.2266 30.8645 30.2066 30.8645C26.1858 30.8645 24.0962 23.8312 19.1528 23.8312C14.2075 23.8312 6.35057 40.7915 6.35057 40.7915L5.81818 43.6667C5.81818 43.6667 8.54775 55.7684 37.1038 55.7684C65.661 55.7684 67.9432 43.8653 67.9432 43.8653L67.5199 41.2248" fill="#66CC66"/>
<path d="M30.6542 37.4856C26.2192 37.4856 23.9457 33.1098 22.7131 30.4087C21.6046 27.9755 21.4128 24.1338 18.2677 24.0262C18.5767 23.9036 18.8742 23.8312 19.1531 23.8312C24.0964 23.8312 26.186 30.8645 30.2069 30.8645C34.2269 30.8645 42.9897 15.3493 46.1243 15.3493C46.715 15.3493 47.3804 15.5577 48.1023 15.9284C47.5683 15.858 46.8835 15.907 46.3559 16.4363C45.3426 17.4498 36.1446 37.4856 30.6542 37.4856Z" fill="#17AD49"/>
</g>
<defs>
<clipPath id="clip0_0_365">
<rect width="72.1127" height="60" fill="white" transform="translate(0.516846 0.796875)"/>
</clipPath>
</defs>
</svg>
