<svg width="61" height="61" viewBox="0 0 61 61" fill="none" xmlns="http://www.w3.org/2000/svg">
<g clip-path="url(#clip0_0_346)">
<path d="M13.6568 0.796875H47.3768C54.634 0.796875 60.5168 6.67969 60.5168 13.9369V47.6569C60.5168 54.9141 54.634 60.7969 47.3768 60.7969H13.6568C6.39966 60.7969 0.516846 54.9141 0.516846 47.6569V13.9369C0.516846 6.67969 6.39966 0.796875 13.6568 0.796875Z" fill="url(#paint0_linear_0_346)"/>
<path d="M19.7455 44.3461L19.7511 44.348L17.6996 47.9011C16.9508 49.1981 15.2923 49.6425 13.9953 48.8937C12.6985 48.1448 12.2539 46.4864 13.0027 45.1894L14.514 42.5719L14.659 42.3206C14.918 41.9484 15.5572 41.3058 16.8357 41.4267C16.8357 41.4267 19.8444 41.7532 20.0621 43.317C20.0621 43.317 20.0916 43.8314 19.7455 44.3461ZM48.8415 35.2711H42.4444C42.0087 35.2418 41.8187 35.0862 41.7437 34.9957L41.739 34.9875L34.8912 23.1267L34.8823 23.1326L34.4717 22.5438C33.7986 21.5145 32.7298 24.147 32.7298 24.147C31.4537 27.0804 32.911 30.4153 33.4189 31.4234L42.9303 47.8976C43.6789 49.1944 45.3373 49.639 46.6346 48.8899C47.9314 48.1411 48.376 46.4827 47.6269 45.1856L45.2487 41.0663C45.2026 40.9664 45.1224 40.6955 45.6101 40.6943H48.8415C50.3391 40.6943 51.5532 39.4802 51.5532 37.9826C51.5532 36.4849 50.3391 35.2709 48.8415 35.2709V35.2711ZM36.4163 38.9573C36.4163 38.9573 36.7578 40.6943 35.4366 40.6943H11.7884C10.2908 40.6943 9.0767 39.4802 9.0767 37.9826C9.0767 36.4849 10.2908 35.2709 11.7884 35.2709H17.8681C18.8497 35.2141 19.0822 34.6474 19.0822 34.6474L19.0878 34.6502L27.0237 20.9046L27.0214 20.9041C27.166 20.6386 27.0455 20.3876 27.0247 20.348L24.4037 15.8084C23.6548 14.5116 24.0992 12.8529 25.3962 12.1043C26.6933 11.3555 28.3517 11.7996 29.1005 13.0966L30.316 15.202L31.5294 13.1004C32.2782 11.8036 33.9366 11.359 35.2337 12.108C36.5307 12.8569 36.9751 14.5151 36.2262 15.8121L25.183 34.9395C25.1347 35.0559 25.1199 35.2388 25.4792 35.2709H32.0801L32.0815 35.3353C32.0815 35.3353 35.8967 35.3946 36.4163 38.9573Z" fill="white"/>
</g>
<defs>
<linearGradient id="paint0_linear_0_346" x1="30.5168" y1="0.796875" x2="30.5168" y2="60.7969" gradientUnits="userSpaceOnUse">
<stop stop-color="#17C9FB"/>
<stop offset="1" stop-color="#1A74E8"/>
</linearGradient>
<clipPath id="clip0_0_346">
<rect width="60" height="60" fill="white" transform="translate(0.516846 0.796875)"/>
</clipPath>
</defs>
</svg>
